<svg width="375" height="260" viewBox="0 0 375 260" fill="none" xmlns="http://www.w3.org/2000/svg">
<path d="M171.706 19.3445C175.487 16.3659 175.557 15.1429 170.896 14.008C166.468 12.8587 163.986 12.6887 159.557 14.008L149.028 16.6764L141.739 18.6776L140.119 19.3445L136.879 17.3435L135.259 19.3445L131.21 18.0106V16.6764L98.0022 5.33646H96.3824L98.0022 8.00469L114.201 15.3423L121.49 18.9444L126.35 21.3459L123.11 23.347L121.49 18.9444L114.201 15.3423L115.821 24.6811L114.201 26.6823L100.432 22.0129L101.242 24.0141L110.151 28.0164L115.011 32.0188L118.251 31.3517L123.11 33.3529L124.73 34.02L126.35 31.3517L141.739 28.6835L170.086 39.3564H171.706L172.516 38.0223L161.177 30.6847L159.557 31.3517L156.318 29.3505L157.128 27.3494V26.0153L171.706 19.3445Z" fill="#E7E7E7"/>
<path d="M242.171 21.3459L239.741 24.6811V26.0153H237.311L234.881 25.3482H232.451L230.022 27.3494L227.592 30.0176V32.0188L230.832 33.3529L234.881 33.0194L239.741 32.0188H245.41H248.65L252.7 28.6835L254.32 26.6823L255.94 23.347L251.89 20.6788L248.65 20.0117H244.6L242.171 21.3459Z" fill="#E7E7E7"/>
<path d="M315.875 215.46H311.015L310.205 218.795H315.065L315.875 215.46Z" fill="#F8F8F8"/>
<path d="M307.775 215.46H302.916L302.106 218.795H306.965L307.775 215.46Z" fill="#F8F8F8"/>
<path d="M299.676 215.46H294.816L294.007 218.795H298.866L299.676 215.46Z" fill="#F8F8F8"/>
<path d="M315.875 222.13H311.015L310.205 225.466H315.065L315.875 222.13Z" fill="#F8F8F8"/>
<path d="M307.775 222.13H302.916L302.106 225.466H306.965L307.775 222.13Z" fill="#F8F8F8"/>
<path d="M299.676 222.13H294.816L294.007 225.466H298.866L299.676 222.13Z" fill="#F8F8F8"/>
<path d="M315.875 228.801H311.015L310.205 232.136H315.065L315.875 228.801Z" fill="#F8F8F8"/>
<path d="M307.775 228.801H302.916L302.106 232.136H306.965L307.775 228.801Z" fill="#F8F8F8"/>
<path d="M299.676 228.801H294.816L294.007 232.136H298.866L299.676 228.801Z" fill="#F8F8F8"/>
<path d="M359.611 212.791L360.421 209.456L365.281 210.79L364.471 214.126L359.611 212.791Z" fill="#F8F8F8"/>
<path d="M359.611 219.462L360.421 216.127L365.281 217.461L364.471 220.796L359.611 219.462Z" fill="#F8F8F8"/>
<path fill-rule="evenodd" clip-rule="evenodd" d="M302.916 1.33412L302.106 2.66823V16.3429L299.676 16.6764L298.866 19.3447L298.056 22.0129L297.246 25.3482L298.056 28.0164L299.676 29.3505L300.486 30.0176L288.337 127.408L285.097 128.075L282.667 129.409L281.048 131.41L282.667 133.412L285.907 134.079L281.048 150.755H268.899L267.279 152.089L268.089 162.095H276.188L273.758 169.433H268.089L267.279 176.77L265.659 181.44L269.708 188.777L272.948 192.113L270.518 194.114L274.298 203.453C278.158 200.844 281.724 198.727 285.097 197.08C287.62 195.848 290.036 194.88 292.387 194.167C305.008 190.339 315.763 193.864 331.264 203.453C333.699 205.208 336.442 208.271 338.975 212.124C340.795 214.894 342.506 218.071 343.914 221.463C344.368 222.555 344.79 223.669 345.174 224.798C345.622 226.115 346.019 227.452 346.354 228.801C346.903 231.009 347.287 233.247 347.462 235.471H368.521V198.783H359.611L358.801 197.449L361.231 195.448L360.421 194.114L362.851 188.777L362.041 186.109L361.231 184.108L360.421 180.773L357.991 176.103L358.801 173.435H360.421L362.041 172.101V163.429H375V151.422H324.784L319.115 134.079H322.354L323.974 132.745L324.784 131.41L325.594 128.742L324.784 127.408H318.305L307.775 30.0176L308.585 29.3505L309.395 28.0164L311.015 25.3482L310.205 22.0129L309.395 19.3447L308.585 16.6764L306.156 16.3429L305.346 2.00117L303.726 0.667058L302.916 1.33412ZM298.056 124.073L303.726 60.0352L307.775 124.073H298.056ZM294.007 151.422L295.626 140.749H309.395L311.015 151.422H294.007ZM316.685 170.767L293.197 170.1L293.491 167.432H282.667L283.477 162.762H294.007H314.255L316.685 170.767ZM350.702 162.762H328.834L332.073 170.1H345.032V171.434L344.222 174.769V177.437L342.603 179.439C342.333 179.439 341.307 179.705 339.363 180.773C337.419 181.84 336.393 182.107 336.123 182.107L345.032 198.783H352.322L353.942 197.449L352.322 195.448L353.132 194.114L349.892 188.777L350.702 186.109L351.512 184.108L352.322 180.773L354.752 176.103L353.942 173.435H352.322L350.702 172.101V162.762ZM359.611 206.121L360.421 202.786L365.281 204.12L364.471 207.455L359.611 206.121ZM359.611 212.791L360.421 209.456L365.281 210.79L364.471 214.126L359.611 212.791ZM359.611 219.462L360.421 216.127L365.281 217.461L364.471 220.796L359.611 219.462Z" fill="#E7E7E7"/>
<path d="M260.799 210.79L257.883 202.786L237.311 234.137H257.883L262.735 215.46L260.799 210.79Z" fill="#E7E7E7"/>
<path fill-rule="evenodd" clip-rule="evenodd" d="M285.097 197.08L284.287 201.451L283.477 203.453H284.287L281.858 208.789V211.457L282.667 214.793L285.097 220.129V224.131V224.798L282.667 226.133L280.778 228.801L281.858 234.137V235.471H326.404V212.124H294.007L294.816 210.123V208.122L293.197 206.121L292.387 205.454L291.577 204.787L292.387 203.453L293.197 202.119L291.577 201.451L292.387 199.45L290.767 198.116L292.387 194.167C290.036 194.88 287.62 195.848 285.097 197.08ZM323.974 215.46H319.115L318.305 218.795H323.164L323.974 215.46ZM315.875 215.46H311.015L310.205 218.795H315.065L315.875 215.46ZM307.775 215.46H302.916L302.106 218.795H306.965L307.775 215.46ZM299.676 215.46H294.816L294.007 218.795H298.866L299.676 215.46ZM323.974 222.13H319.115L318.305 225.466H323.164L323.974 222.13ZM315.875 222.13H311.015L310.205 225.466H315.065L315.875 222.13ZM307.775 222.13H302.916L302.106 225.466H306.965L307.775 222.13ZM299.676 222.13H294.816L294.007 225.466H298.866L299.676 222.13ZM323.974 228.801H319.115L318.305 232.136H323.164L323.974 228.801ZM315.875 228.801H311.015L310.205 232.136H315.065L315.875 228.801ZM307.775 228.801H302.916L302.106 232.136H306.965L307.775 228.801ZM299.676 228.801H294.816L294.007 232.136H298.866L299.676 228.801Z" fill="#E7E7E7"/>
<path d="M331.264 203.453V235.471H347.462C347.287 233.247 346.903 231.009 346.354 228.801H333.693L335.313 224.131L345.174 224.798C344.79 223.669 344.368 222.555 343.914 221.463H333.693L335.313 217.461L341.793 218.128L343.914 221.463C342.506 218.071 340.795 214.894 338.975 212.124L337.743 214.126L333.693 212.791L335.313 210.123L336.933 210.79L338.975 212.124C336.442 208.271 333.699 205.208 331.264 203.453Z" fill="#E7E7E7"/>
<path d="M283.477 162.762L282.667 167.432H293.491L294.007 162.762H283.477Z" fill="#D3D3D3"/>
<path d="M265.659 181.44L267.279 176.77L265.659 169.433V167.432V163.429L264.849 158.76V154.757V151.422L262.419 142.083L259.989 132.077H258.369H249.865H241.361L238.931 130.743H223.542L222.732 132.745L221.738 150.755L221.112 162.095L220.178 172.101L219.835 175.77L219.492 179.439V191.472L238.121 191.779L237.311 190.779L238.121 182.774L245.41 168.099L246.22 174.769L251.08 193.447L269.708 188.777L265.659 181.44Z" fill="#263238"/>
<path d="M272.948 192.113L269.708 188.777L251.08 193.447L249.46 194.781L251.08 196.782L252.7 198.116L255.94 197.449L270.518 194.114L272.948 192.113Z" fill="#949B9E"/>
<path d="M238.121 196.115L238.931 192.78L238.121 191.779L219.492 191.472L217.873 191.446L217.468 194.781L219.492 194.912L236.069 195.982L238.121 196.115Z" fill="#949B9E"/>
<path d="M275.378 208.789L274.568 204.12L274.298 203.453L270.518 194.114L255.94 197.449L257.883 202.786L260.799 210.79L262.735 215.46L272.138 238.14L276.998 249.079L283.477 247.478L282.667 244.143V240.141L281.858 236.806V235.471V234.137L280.778 228.801L280.238 226.133L278.618 219.462L277.808 215.46L276.188 212.124L275.378 208.789Z" fill="#FF8B7B"/>
<path d="M219.492 194.912L220.07 234.804L220.302 250.814H227.592L229.212 245.477L230.832 240.808L231.642 236.806L232.451 233.47L234.071 225.466L234.881 220.796L235.691 215.46L236.501 209.456V202.786L236.069 195.982L219.492 194.912Z" fill="#FF8B7B"/>
<path d="M287.527 252.815L283.477 247.478L276.998 249.079L275.378 249.48L273.758 252.148L268.899 254.816L268.089 256.817L271.328 258.151L273.758 257.484L287.527 253.482V252.815Z" fill="#263238"/>
<path d="M227.592 250.814H220.302L210.583 253.482L208.963 256.15L213.013 257.484H225.972L230.022 256.15L227.592 250.814Z" fill="#263238"/>
<path d="M234.881 124.073L235.691 124.74V126.741L237.311 128.742L238.931 129.409L241.361 130.743V132.077H249.865L252.7 129.409L254.32 126.074L253.51 122.739L252.7 120.07L251.89 118.069L252.7 116.068L254.32 116.735L255.94 117.402H257.559H259.179H261.609L263.229 118.069L267.279 117.402H272.138L274.568 116.735L276.998 117.402L280.238 116.735L281.858 116.068L282.667 114.734V110.732V105.395L280.238 104.728L276.998 103.394H273.758H271.733H269.708H251.89H247.84L247.612 103.331L245.41 102.727L241.361 103.394L238.627 104.728L236.501 105.395H235.387L235.026 118.736L234.881 124.073Z" fill="#263238"/>
<path fill-rule="evenodd" clip-rule="evenodd" d="M258.369 132.077H259.989L262.419 132.745H266.469H270.518H275.378L278.618 131.41L280.238 130.076L281.858 128.075L282.667 126.074V122.739L281.858 116.735V116.068L280.238 116.735L276.998 117.402L274.568 116.735L272.138 117.402H267.279L263.229 118.069L261.609 117.402H259.179H257.559H255.94L254.32 116.735L252.7 116.068L251.89 118.069L252.7 120.07L253.51 122.739L254.32 126.074L252.7 129.409L249.865 132.077H258.369ZM256.75 122.739L260.799 118.736L264.039 124.073L259.989 128.075L256.75 122.739ZM271.328 121.405L275.378 117.402L278.618 122.739L274.568 126.741L271.328 121.405Z" fill="#515B60"/>
<path fill-rule="evenodd" clip-rule="evenodd" d="M251.89 103.394H269.708H271.733L272.948 102.06L273.758 101.393L274.568 99.3916V98.0575V91.3869L272.948 90.7199L271.733 91.5954L270.518 90.7199H268.089L267.279 91.3869H264.849H263.229L260.799 90.7199L258.369 91.3869L255.94 90.7199H255.13L254.32 91.3869H252.7L251.08 90.7199L250.27 91.3869L249.46 92.721L251.08 94.0552L250.27 96.0563L251.08 97.3904L250.27 99.3916L249.46 101.393L247.612 103.331L247.84 103.394H251.89ZM255.13 96.7234L256.75 92.054L260.799 95.3893L258.369 99.3916L255.13 96.7234ZM266.469 98.0575L268.089 93.3881L272.138 96.7234L269.708 100.726L266.469 98.0575Z" fill="#515B60"/>
<path d="M241.361 103.394L245.41 102.727L247.612 103.331L249.46 101.393L250.27 99.3916L251.08 97.3904L250.27 96.0563L251.08 94.0552L249.46 92.721L250.27 91.3869L251.08 90.7199L252.7 91.3869H254.32L255.13 90.7199H255.94L258.369 91.3869L260.799 90.7199L263.229 91.3869H264.849H267.279L268.089 90.7199H270.518L271.733 91.5954L272.948 90.7199L274.568 91.3869V84.7163C273.826 82.9702 273.097 82.0956 267.279 82.0481H260.799H257.559H249.46H245.41C245.24 82.0492 245.072 82.0512 244.906 82.054C243.547 82.0769 242.373 82.1562 241.361 82.3035L240.551 84.7163V86.0505L241.361 87.3846L240.551 90.0528L241.361 92.054L240.551 94.0552L239.741 96.0563L240.551 96.7234L239.741 98.7246L240.551 100.059V101.393L239.741 102.06L241.361 103.394Z" fill="#263238"/>
<path d="M238.627 104.728L241.361 103.394L239.741 102.06L240.551 101.393V100.059L239.741 98.7246L240.551 96.7234L239.741 96.0563L240.551 94.0552L241.361 92.054L240.551 90.0528L241.361 87.3846L240.551 86.0505V84.7163L241.361 82.3035C240.207 82.4714 239.264 82.7276 238.496 83.089C236.251 84.1462 235.508 86.1036 235.387 89.3858V93.3881V105.395H236.501L238.627 104.728Z" fill="#3F4A50"/>
<path d="M241.361 82.3035C242.373 82.1562 243.547 82.0769 244.906 82.054L237.311 76.7116L239.741 76.0446L240.551 75.044L241.361 74.0434L238.931 72.0422L237.311 71.3752L224.352 74.0434H221.112L218.683 73.3764H216.253L214.633 74.0434L212.203 74.7105L210.583 76.0446H208.153L205.724 77.3787L203.294 78.0458L200.864 78.7128C200.594 78.9352 199.406 79.3799 196.814 79.3799H193.575L191.955 80.0469L190.335 79.3799L195.194 94.7222H208.153L208.963 93.3881L208.153 90.7199V89.3858L204.914 81.3811L205.724 80.0469L221.112 76.7116L223.061 82.4442L225.162 80.714L226.782 79.3799L228.402 78.7128H230.022H231.642H233.261L234.071 79.3799L235.387 80.0469L235.691 80.714L236.501 81.3811L237.311 82.0481L237.564 82.3035L238.496 83.089C239.264 82.7276 240.207 82.4714 241.361 82.3035Z" fill="#0174CA"/>
<path d="M196.004 96.7234L195.194 98.0575V99.3916L199.244 101.393L202.484 102.393L205.724 103.394H208.153H210.583L213.013 102.727L215.443 101.393L219.492 99.3916L221.112 96.7234L216.253 95.3893L217.873 92.2207L221.213 85.6861L211.393 89.3858L210.583 90.7199L211.393 92.721L210.583 94.0552L211.393 95.3893L209.773 96.7234L208.963 97.3904L196.004 96.7234Z" fill="#0174CA"/>
<path d="M216.253 95.3893L221.112 96.7234L229.818 99.7963L232.451 100.726L233.984 97.5701L234.047 97.3827L217.873 92.2207L216.253 95.3893Z" fill="#0174CA"/>
<path d="M258.369 80.0469L257.559 82.0481H260.799L262.419 79.3799V78.0458L260.799 76.7116L258.369 75.3775L255.13 74.7105L251.89 75.3775L249.46 76.0446L247.84 76.7116L247.03 78.0458L246.22 80.0469L245.41 82.0481H249.46L248.65 80.0469L249.46 79.3799L250.27 78.7128L251.89 78.0458L254.32 77.3787H255.94L257.559 78.0458L259.179 78.7128L258.369 80.0469Z" fill="#0174CA"/>
<path d="M227.592 63.3705L228.402 62.7034L229.212 62.0364L230.832 62.7034L231.642 60.0352L234.071 60.7023L234.881 60.0352L236.501 60.7023L237.311 61.3693L238.121 60.7023L238.931 60.0352L236.501 59.2347L234.881 58.7011H234.071H232.451L233.261 57.367L232.451 57.2002L230.022 56.6999L229.212 58.034L228.402 57.367L226.782 60.7023H227.592V62.0364V63.3705Z" fill="#0174CA"/>
<path d="M221.112 112.733L223.542 117.402L225.162 118.736L226.782 120.737L229.212 122.072L231.642 123.406L234.881 124.073L235.026 118.736L231.642 118.069L229.212 116.735L226.782 115.401L222.732 110.026C222.081 110.972 221.401 111.709 220.587 112.224L221.112 112.733Z" fill="#0174CA"/>
<path d="M226.782 79.3799L225.162 80.714L223.061 82.4442L222.732 82.7152L221.213 85.6861L217.873 92.2207L234.047 97.3827L235.387 93.3881V89.3858C235.508 86.1036 236.251 84.1462 238.496 83.089L237.564 82.3035L237.311 82.0481L236.501 81.3811L235.691 80.714L235.387 80.0469L234.071 79.3799L233.261 78.7128H231.642H230.022H228.402L226.782 79.3799Z" fill="#EBEAEA"/>
<path d="M233.984 97.5701L232.451 100.726L229.818 99.7963L223.542 108.73C223.272 109.198 223.004 109.63 222.732 110.026L226.782 115.401L229.212 116.735L231.642 118.069L235.026 118.736L235.387 105.395V93.3881L234.047 97.3827L234.071 97.3904L233.984 97.5701Z" fill="#EBEAEA"/>
<path d="M223.542 130.743H238.931L241.361 132.077V130.743L238.931 129.409L237.311 128.742L235.691 126.741V124.74L234.881 124.073L231.642 123.406L229.212 122.072L226.782 120.737L225.162 118.736L223.542 117.402L221.112 112.733L223.542 130.743Z" fill="#EBEAEA"/>
<path d="M260.799 118.736L256.75 122.739L259.989 128.075L264.039 124.073L260.799 118.736Z" fill="#EBEAEA"/>
<path d="M275.378 117.402L271.328 121.405L274.568 126.741L278.618 122.739L275.378 117.402Z" fill="#EBEAEA"/>
<path d="M268.089 93.3881L266.469 98.0575L269.708 100.726L272.138 96.7234L268.089 93.3881Z" fill="#EBEAEA"/>
<path d="M256.75 92.054L255.13 96.7234L258.369 99.3916L260.799 95.3893L256.75 92.054Z" fill="#EBEAEA"/>
<path d="M247.84 76.7116L249.46 76.0446L246.22 75.3775H244.6L242.171 76.0446L240.551 75.044L239.741 76.0446L237.311 76.7116L244.906 82.054C245.072 82.0512 245.24 82.0492 245.41 82.0481L246.22 80.0469L247.03 78.0458L247.84 76.7116Z" fill="#EBEAEA"/>
<path d="M257.559 82.0481L258.369 80.0469L259.179 78.7128L257.559 78.0458L255.94 77.3787H254.32L251.89 78.0458L250.27 78.7128L249.46 79.3799L248.65 80.0469L249.46 82.0481H257.559Z" fill="#EBEAEA"/>
<path d="M221.112 96.7234L219.492 99.3916L217.063 104.728L216.253 105.395H214.633L213.013 106.062H211.393L208.963 105.395H206.534L204.914 104.728H203.294L202.484 102.393L199.244 101.393L197.624 102.06L195.194 100.726H193.575L192.765 101.393L191.955 103.394L193.575 104.728L192.765 106.062L193.575 107.396L196.814 108.73H199.244H200.864L211.393 112.066C216.081 113.416 218.698 113.417 220.587 112.224C221.401 111.709 222.081 110.972 222.732 110.026C223.004 109.63 223.272 109.198 223.542 108.73L229.818 99.7963L221.112 96.7234Z" fill="#FF8B7B"/>
<path d="M249.46 76.0446L251.89 75.3775L248.65 71.3752L246.22 72.0422L243.791 70.7081V68.707L242.171 64.7046L244.6 60.7023L241.361 59.3681L240.551 61.3693L238.121 60.7023L237.311 61.3693L236.501 60.7023L234.881 60.0352L234.071 60.7023L231.642 60.0352L230.832 62.7034L229.212 62.0364L228.402 62.7034L227.592 63.3705L229.212 64.0376L231.642 64.7046L230.832 66.0387C230.832 66.7058 230.994 68.3067 231.642 69.374C232.289 70.4413 232.991 70.7081 233.261 70.7081L237.311 71.3752L238.931 72.0422L241.361 74.0434L240.551 75.044L242.171 76.0446L244.6 75.3775H246.22L249.46 76.0446Z" fill="#FF8B7B"/>
<path d="M234.071 58.7011H234.881L236.501 59.2347V58.7011V58.034L235.691 56.0329V54.0317H233.261L232.451 55.3658V57.2002L233.261 57.367L232.451 58.7011H234.071Z" fill="#FF8B7B"/>
<path d="M248.65 71.3752L250.27 70.0411L252.7 68.707L255.13 67.3728L256.75 64.7046L257.559 62.7034L258.369 61.3693L257.559 58.7011L255.94 57.367L255.13 56.6999L256.75 55.3658L257.559 54.0317V52.0305V50.0293L255.13 48.6952L253.51 48.0282L254.32 50.0293L255.13 52.6976V54.0317L252.7 53.3646V51.3635L251.08 49.3623L247.84 47.3611H242.171L239.741 46.027L237.311 45.3599L234.881 46.027C234.611 46.9164 233.747 48.5618 232.451 48.0282C231.156 47.4945 229.752 47.3611 229.212 47.3611L228.402 49.3623V50.6964L230.022 52.6976L231.642 54.0317H233.261H235.691V56.0329L236.501 58.034V58.7011V59.2347L238.931 60.0352L238.121 60.7023L240.551 61.3693L241.361 59.3681L244.6 60.7023L242.171 64.7046L243.791 68.707V70.7081L246.22 72.0422L248.65 71.3752Z" fill="#263238"/>
<path d="M116.631 146.753L117.441 136.747C117.116 135.497 116.764 134.389 116.336 133.412C114.451 129.111 111.084 127.365 102.052 127.408L94.7625 128.075C87.8187 129.621 86.9559 132.326 85.8532 137.414L84.2334 146.753H85.0433H89.093H89.9029V137.414C89.8175 133.244 91.7114 132.114 97.1923 131.41H102.862C109.824 131.527 111.72 132.724 111.771 136.747L110.961 146.753H111.771H115.821H116.631Z" fill="#4A545A"/>
<path d="M85.0433 146.753L84.8489 150.755L83.8446 171.434L83.4234 180.106H86.6632L87.9753 162.095L88.8014 150.755L89.093 146.753H85.0433Z" fill="#6D767A"/>
<path d="M111.771 146.753L111.48 150.755L110.653 162.095L109.341 180.106H112.581L112.905 176.77L115.626 148.754L115.821 146.753H111.771Z" fill="#6D767A"/>
<path d="M112.581 180.106H109.341H100.432L105.292 182.107L106.405 183.441L106.912 188.11L106.102 192.113L103.672 238.14L101.647 246.811L95.2687 248.813L98.8122 249.898L99.6221 250.147L103.672 249.67L105.292 249.48L112.581 248.146L115.821 244.81V238.14L119.061 202.786V197.449L119.87 189.444L119.061 185.442L118.251 184.108L116.631 181.44L112.581 180.106Z" fill="#0084E3"/>
<path d="M112.581 180.106L116.631 181.44L118.251 184.108H132.829L134.449 185.442L136.879 181.44L135.259 178.772L132.829 178.554L115.011 176.959L112.905 176.77L112.581 180.106Z" fill="#0084E3"/>
<path d="M139.309 178.772H137.689V180.773L139.714 183.441L141.739 184.775L142.549 184.593L157.937 181.137L159.557 180.773V175.436H157.128L139.309 178.772Z" fill="#0084E3"/>
<path d="M86.6632 180.106H83.4234H72.0843L68.0347 182.774L65.6049 184.108L61.5552 183.441L59.1254 186.109L58.3154 189.444L56.6956 191.446H54.2658L52.6459 192.113L50.2161 236.138L51.026 236.806L54.2658 239.474V240.808L55.0757 244.81L57.5055 245.477L63.175 246.811L64.7949 247.478L65.6049 249.48L68.4396 250.147L71.2744 250.814L86.6632 250.147L89.093 246.811L95.2687 245.477H97.1923L99.6221 242.809L98.0023 240.808L101.242 238.14H103.672L106.102 192.113L102.862 190.111L103.672 186.776L102.052 184.775L96.3824 183.441L93.9526 184.108V180.106H86.6632Z" fill="#0094FF"/>
<path d="M61.5552 253.482C55.9892 251.058 52.9867 254.515 54.2658 258.151C58.8957 261.126 60.8052 260.407 63.175 255.483L61.5552 253.482Z" fill="#222F35"/>
<path d="M96.3824 254.149C92.5011 252.39 88.4553 253.307 89.093 258.151C92.8578 260.755 94.8702 261.045 98.0023 256.15L96.3824 254.149Z" fill="#222F35"/>
<path d="M65.6049 249.48L64.7949 247.478L61.5552 253.482L63.175 255.483L65.6049 256.15L68.4396 250.147L65.6049 249.48Z" fill="#A8ACAE"/>
<path d="M99.6221 250.147L98.8122 249.898L97.1923 252.815L96.3824 254.149L98.0023 256.15L100.432 256.817L103.672 249.67L99.6221 250.147Z" fill="#A8ACAE"/>
<path d="M105.292 182.107L100.432 180.106H93.9526V184.108L96.3824 183.441L102.052 184.775L103.672 186.776L102.862 190.111L106.102 192.113L106.912 188.11L106.405 183.441L105.292 182.107Z" fill="#A8ACAE"/>
<path d="M115.821 244.81L112.581 248.146L111.771 250.147H119.87L132.829 184.108H118.251L119.061 185.442L119.87 189.444L119.061 197.449V202.786L115.821 238.14V244.81Z" fill="#FFC3BD"/>
<path d="M142.549 184.593L144.169 196.782L144.979 204.12L153.888 250.814L161.987 250.147L157.937 181.137L142.549 184.593Z" fill="#FFC3BD"/>
<path d="M111.771 250.147L109.341 256.15L126.35 258.151L129.59 256.817L130.4 255.483L123.11 253.482L120.68 250.147H119.87H111.771Z" fill="#222F35"/>
<path d="M161.987 250.147L153.888 250.814L152.268 256.817L170.086 257.484L173.326 256.15V254.149L170.896 253.482L165.227 252.148L161.987 250.147Z" fill="#222F35"/>
<path d="M135.259 129.409L123.92 130.076L116.631 129.531L116.336 133.412C116.764 134.389 117.116 135.497 117.441 136.747L116.631 146.753H115.821L115.626 148.754L115.011 176.959L132.829 178.554V178.104L135.259 148.087L137.689 152.756L138.499 172.101L137.284 173.435L139.309 178.772L157.128 175.436L156.574 172.768L152.011 150.755L151.458 148.087L148.218 129.409L143.359 130.743L135.259 129.409Z" fill="#F3F2F2"/>
<path d="M135.259 148.087L136.069 174.769L137.284 173.435L138.499 172.101L137.689 152.756L135.259 148.087Z" fill="#DAD9D9"/>
<path d="M133.639 115.401H131.21L126.35 118.069L123.11 120.737L117.441 122.072L115.821 122.368L115.011 129.409L116.631 129.531L123.92 130.076L135.259 129.409L143.359 130.743L148.218 129.409V113.946L144.169 112.733H143.359L144.169 113.4V114.067H140.929H137.689L136.069 114.734L133.639 115.401Z" fill="#0094FF"/>
<path d="M120.68 93.3881L117.441 89.3858L113.391 90.0528L110.151 92.721L108.531 96.0563L106.912 99.3916V102.727L104.988 105.395L104.482 108.063V112.066L103.672 114.067V117.402L104.988 119.403L106.102 122.739L110.151 123.406L115.821 122.368L117.441 122.072L123.11 120.737L126.35 118.069L131.21 115.401L130.4 113.4L131.21 111.399L133.639 110.065H136.069L141.739 108.73L143.359 106.062L144.978 106.729L145.788 106.062H148.218H149.838H151.458L139.233 89.3232L138.499 88.7187L136.069 89.3858L136.879 92.721C137.13 97.9587 135.23 99.0533 126.35 96.0563L123.92 94.7222L120.68 93.3881Z" fill="#0094FF"/>
<path d="M148.218 81.3811L157.128 95.3893L143.269 90.7199L149.028 99.3916L150.648 100.059L157.128 102.06C166.201 102.226 168.533 100.873 166.847 95.3893L152.268 78.7128L151.458 79.2465L149.028 80.8474L148.218 81.3811Z" fill="#0094FF"/>
<path d="M144.978 106.729L143.359 106.062L141.739 108.73L142.549 110.065V111.399L143.359 112.733H144.169L148.218 113.946L153.078 115.401L155.508 111.399L153.078 110.732L153.888 109.397L153.483 109.231L152.268 108.73L151.458 110.065L152.268 108.063L149.838 107.396L146.598 106.729H144.978Z" fill="#475056"/>
<path d="M143.269 90.7199L139.309 89.3858L139.233 89.3232L151.458 106.062H149.838H148.218H145.788L144.978 106.729H146.598L149.838 107.396L152.268 108.063L151.458 110.065L152.268 108.73L153.483 109.231L154.698 107.396L153.888 105.395L153.078 104.728V104.061L151.458 102.727L150.648 102.06L149.028 99.3916L143.269 90.7199Z" fill="black" fill-opacity="0.7"/>
<path d="M147.408 66.0387L144.978 68.707L145.788 70.0411L144.978 72.0422V75.3775L145.788 78.0458L147.408 80.0469L149.028 80.8474L151.458 79.2465L149.838 77.3787V76.0446L150.648 73.3764L149.838 72.0422V70.0411L149.028 68.0399L147.408 66.0387Z" fill="#FFD3CE"/>
<path d="M124.73 62.7034L121.49 64.0376L119.061 65.3717L117.441 66.0387L115.821 67.3728L113.391 72.0422L112.581 74.7105L110.961 77.3787L112.318 77.9374L112.581 78.0458L112.298 77.9875L110.961 81.3811V83.3822L111.771 85.3834L114.201 87.3846H116.631V86.0505L115.011 84.7163V82.0481L117.441 82.7152V84.7163L119.061 87.3846H121.49L123.11 84.7163L124.73 82.0481L125.54 80.714L122.3 80.0469L121.49 80.714L119.061 80.0469L118.251 77.3787L119.061 76.0446L121.49 76.7116L122.3 74.7105L120.68 74.0434L122.3 71.3752H123.92L125.54 70.0411L124.73 68.707L126.35 66.7058L132.829 66.0387L135.259 68.0399L136.069 70.0411L136.879 72.7093L137.689 76.0446V78.7128L136.879 81.3811L132.02 83.3822H128.78L127.97 85.3834L129.59 87.3846L134.449 88.0516L140.119 86.0505L144.169 82.7152L144.978 80.0469L139.309 70.7081V68.0399V65.3717L140.929 64.0376L137.689 61.3693H132.829L124.73 62.7034Z" fill="#5C6568"/>
<path d="M50.2161 44.0258C41.3308 39.3953 37.5177 40.0909 32.3975 46.027L30.7777 48.6952L31.5876 52.6976L26.728 51.3635C15.2943 50.559 16.3169 55.5133 18.6286 64.7046L21.0583 66.0387L25.9179 67.3728L33.2073 68.0399H40.4967L65.6047 65.3717L75.3239 60.0352L77.7538 56.0329L74.514 50.6964C67.9786 45.1806 64.5789 44.8534 59.1252 50.6964L50.2161 44.0258Z" fill="#E7E7E7"/>
<path d="M84.8489 150.755H0V162.095H11.3391V165.43H21.8682V160.761H79.3736L78.5637 165.43H80.1836L79.3736 170.767L83.8446 171.434L84.8489 150.755Z" fill="#E7E7E7"/>
<path d="M87.9753 162.095H110.653L111.48 150.755H88.8014L87.9753 162.095Z" fill="#E7E7E7"/>
<path d="M221.112 162.095L221.738 150.755H152.011L156.574 172.768L159.912 162.095H213.823L214.633 171.434L220.178 172.101L221.112 162.095Z" fill="#E7E7E7"/>
<path fill-rule="evenodd" clip-rule="evenodd" d="M219.492 194.912L217.468 194.781H202.484V234.137L220.07 234.804L219.492 194.912ZM205.723 196.782H215.443L214.633 206.121H204.914L205.723 196.782ZM205.723 208.789L213.013 210.123L216.253 218.795L204.914 218.128L205.723 208.789ZM217.063 224.798L214.633 224.131L213.823 230.802L204.914 231.469V221.463L217.872 222.13L217.063 224.798Z" fill="#E7E7E7"/>
<path fill-rule="evenodd" clip-rule="evenodd" d="M195.194 94.7222L196.004 96.7234L208.963 97.3904L209.773 96.7234L211.393 95.3893L210.583 94.0552L211.393 92.721L210.583 90.7199L211.393 89.3858L221.213 85.6861L222.732 82.7152L223.061 82.4442L221.112 76.7116L205.724 80.0469L204.914 81.3811L208.153 89.3858V90.7199L208.963 93.3881L208.153 94.7222H195.194ZM220.302 83.089L219.492 78.7128L207.343 81.3811L211.393 86.7175L220.302 83.089Z" fill="#F8F8F8"/>
<path d="M219.492 78.7128L220.302 83.089L211.393 86.7175L207.343 81.3811L219.492 78.7128Z" fill="#0174CA"/>
<path d="M232.451 55.3658L230.832 54.6987L229.212 55.3658L230.022 56.6999L232.451 57.2002V55.3658Z" fill="#263238"/>
<path fill-rule="evenodd" clip-rule="evenodd" d="M123.11 84.7163L121.49 87.3846L119.87 90.0528L125.54 94.0552L127.97 95.3893C134.103 97.6704 135.646 97.2106 135.259 93.3881L134.449 90.0528L129.59 87.3846L127.97 85.3834L128.78 83.3822H132.02L136.879 81.3811L137.689 78.7128V76.0446L136.879 72.7093L136.069 70.0411L135.259 68.0399L132.829 66.0387L126.35 66.7058L124.73 68.707L125.54 70.0411L123.92 71.3752H122.3L120.68 74.0434L122.3 74.7105L121.49 76.7116L119.061 76.0446L118.251 77.3787L119.061 80.0469L121.49 80.714L122.3 80.0469L125.54 80.714L124.73 82.0481L123.11 84.7163ZM131.209 72.0422L130.4 71.3752L129.995 72.0422L128.78 71.3752L127.97 72.0422L129.59 72.7093L128.78 74.0434L129.59 74.7105L131.209 72.0422ZM135.259 78.0458L133.639 77.3787L132.829 79.3799L130.4 78.7128L129.59 79.3799V78.0458L130.4 77.3787L132.829 78.0458L133.639 76.0446L136.069 77.3787L135.259 78.0458ZM135.259 71.3752L133.639 70.7081L134.449 70.0411L136.069 70.7081L135.259 71.3752Z" fill="#FFD3CE"/>
<path d="M127.97 72.0422L129.59 72.7093L129.995 72.0422L128.78 71.3752L127.97 72.0422Z" fill="#5C6568" fill-opacity="0.4"/>
<path d="M131.209 72.0422L130.4 71.3752L129.995 72.0422L129.59 72.7093L128.78 74.0434L129.59 74.7105L131.209 72.0422Z" fill="#5C6568" fill-opacity="0.4"/>
<path d="M133.639 70.7081L135.259 71.3752L136.069 70.7081L134.449 70.0411L133.639 70.7081Z" fill="#5C6568" fill-opacity="0.4"/>
<path d="M135.259 78.0458L133.639 77.3787L132.829 79.3799L130.4 78.7128L129.59 79.3799V78.0458L130.4 77.3787L132.829 78.0458L133.639 76.0446L136.069 77.3787L135.259 78.0458Z" fill="#5C6568" fill-opacity="0.4"/>
<path d="M121.49 64.0376L124.73 62.7034L132.829 61.3693H137.689L140.929 64.0376L139.309 65.3717V68.0399V70.7081H140.929L143.359 70.0411L144.978 68.707L147.408 66.0387C151.613 58.5223 150.046 56.1115 140.929 54.6987H135.259L123.92 55.3658L117.441 57.367L108.531 63.3705L108.436 63.4708C107.643 64.3176 102.182 70.3803 102.862 76.0446L112.298 77.9875L112.318 77.9374L110.961 77.3787L112.581 74.7105L113.391 72.0422L115.821 67.3728L117.441 66.0387L119.061 65.3717L121.49 64.0376Z" fill="#0094FF"/>
</svg>
