<svg width="243" height="300" viewBox="0 0 243 300" fill="none" xmlns="http://www.w3.org/2000/svg">
<ellipse cx="86.3276" cy="284.841" rx="86.3276" ry="15.1593" fill="#D9D9D9"/>
<path d="M104.695 285.964V288.49L140.206 282.033L141.43 279.226L139.594 278.103L138.369 279.788L104.695 285.964Z" fill="black"/>
<path d="M42.2453 258.452L54.4904 267.997L52.0414 270.243V274.173L60.6129 279.788C62.0535 282.494 62.7316 283.977 59.3884 285.402L33.0615 267.997L42.2453 258.452Z" fill="#161551"/>
<path d="M31.2248 268.559L29.388 269.681L57.5516 288.771L60.6129 288.209V286.525H58.7761L31.2248 268.559Z" fill="#161551"/>
<path d="M67.9599 183.217L66.1232 182.656L64.8987 182.094V195.008L66.7354 203.991L68.5722 211.852L71.6335 223.081L46.5311 251.715L63.6742 265.19L93.0623 236.556L94.2868 233.748L96.1236 230.941L96.7358 227.011L93.0623 200.061L92.45 183.779L91.5317 180.971L89.3888 181.533L85.103 182.656L80.205 183.217L75.307 183.779L70.4089 184.34L67.9599 183.217Z" fill="#0084E3"/>
<path d="M103.471 272.489L117.552 269.681L121.226 274.173H132.859C139.49 275.589 139.064 276.848 137.144 279.226L105.307 284.279L103.471 272.489Z" fill="black"/>
<path d="M94.2868 233.748L93.0623 236.556L102.858 266.874L123.063 260.698L120.001 250.592L113.879 225.326L108.369 212.413L96.1236 187.709L93.6745 180.41L91.5317 180.971L92.45 183.779L93.0623 200.061L96.7358 227.011L96.1236 230.941L94.2868 233.748Z" fill="#0094FF"/>
<path d="M85.103 141.108L82.0417 140.547L81.4295 142.793L83.2663 143.354L85.103 144.477L86.3275 145.81V147.284L86.9398 149.53V151.214L86.3275 151.776L85.7153 152.899L83.8785 156.267L83.2663 157.952L82.0417 161.601L83.2663 160.198L85.7153 159.075L88.1643 157.39L89.3888 155.706L91.2255 154.022L91.8378 153.46V152.899L91.6082 150.653L91.2255 148.969L90.6133 147.846L90.001 146.723L88.1643 144.477L87.552 143.354L86.3275 142.231L85.103 141.108Z" fill="#003155"/>
<path d="M75.9192 143.354L78.3682 141.67L80.205 141.108V136.055L79.5927 133.248L77.1437 131.563L74.6947 129.879L72.2457 129.318L69.1844 127.633L65.2048 128.195H62.1435L58.7761 128.756L56.3271 131.002L54.4904 132.686L53.8781 133.809L52.6536 136.617V138.862L51.4291 139.985L50.2046 141.67L48.5974 143.915L45.3066 146.161L43.4698 150.091L44.0821 154.022L45.3066 155.706L46.5311 157.39L42.2453 164.128V165.251H37.9596L36.1228 167.497L34.8983 169.181V170.304L35.5105 172.55L36.7351 174.234V174.795L36.1228 175.918L34.286 177.041L37.3473 180.41V186.025L39.1841 189.393L42.2453 193.324L46.5311 195.008L48.9801 196.131L53.8781 196.692L55.7149 196.131H60.0007L62.4497 195.569L64.8987 195.008V182.094L63.6742 181.533L61.8374 179.287L61.2252 177.603V175.918V174.234L61.8374 171.988V169.742L62.4497 166.935L63.4701 164.128L63.6742 163.566L64.8987 159.636L66.7354 155.706L67.7303 153.46L68.5722 151.214L70.4089 148.969L71.6335 147.846L73.4702 145.81L75.9192 143.354Z" fill="#003155"/>
<path d="M97.3481 123.703H96.7358L93.3684 124.826V126.51L94.899 127.633L94.2868 129.879V132.125L93.3684 134.932V136.617L94.2868 137.178L95.5113 138.301H96.7358L97.3481 137.178L99.1848 136.617H100.409L101.634 137.178L102.246 137.739L102.858 138.301L103.088 137.178H104.083V134.932L103.471 131.002L101.634 130.441L99.7971 127.072L97.3481 123.703Z" fill="#E28989"/>
<path d="M87.552 132.686L85.7153 133.248L83.8785 136.055L82.0417 139.985V140.547L85.103 141.108L86.3275 142.231L87.552 143.354L88.1643 144.477L90.001 146.723L90.6133 147.846L92.45 145.038L93.0623 143.915L94.899 142.793L91.6082 139.985L90.6133 137.739V136.055L90.001 133.809L91.6082 130.441L91.8378 128.195L90.6133 126.51H87.552L86.3275 128.195V131.002L87.552 132.686Z" fill="#E28989"/>
<path d="M96.7358 123.703H97.3481L99.7971 127.072L101.634 130.441L103.471 131.002L105.92 131.563L107.756 133.248L110.205 132.686L111.43 132.125L112.654 129.879L113.879 128.195L112.042 125.387L107.756 123.703L101.022 116.404L94.2868 113.035L90.6133 113.597L89.3888 115.843L87.552 116.966H85.103L83.8785 117.527L81.4295 119.773V122.019V123.703L82.654 126.51L83.8785 129.318V131.563L84.4908 132.686L85.7153 133.248L87.552 132.686L86.3275 131.002V128.195L87.552 126.51H90.6133L91.8378 128.195L91.6082 130.441L90.001 133.809L90.6133 136.055V137.739L91.6082 139.985L94.899 142.793L96.7358 143.354H98.5726L100.409 142.793L101.022 141.67L102.246 139.985L102.858 138.301L102.246 137.739L101.634 137.178L100.409 136.617H99.1848L97.3481 137.178L96.7358 138.301H95.5113L94.2868 137.178L93.3684 136.617V134.932L94.2868 132.125V129.879L94.899 127.633L93.3684 126.51V124.826L96.7358 123.703Z" fill="#341B07"/>
<path d="M81.4295 142.793L82.0417 140.547L80.205 141.108L78.3682 141.67L75.9192 143.354L73.4702 145.81L71.6335 147.846L70.4089 148.969L68.5722 151.214L67.7303 153.46L66.7354 155.706L64.8987 159.636L63.6742 163.566L65.5109 160.759L67.7303 155.706L69.1844 152.899L74.0825 147.846L78.3682 144.477L81.4295 142.793Z" fill="#1A1A1B"/>
<path d="M78.9805 165.812L80.8172 163.005L82.0417 161.601L83.2663 157.952L83.8785 156.267L81.4295 160.759L78.3682 165.251L77.756 166.725L75.307 169.742H71.0212L69.7967 170.304L67.3477 171.427L64.2864 173.111L61.8374 174.795L62.4497 171.988V169.742L63.4701 164.128L62.4497 166.935L61.8374 169.742V171.988L61.2252 174.234V175.918L63.6742 174.234L66.1232 173.111L68.5722 171.988L71.6335 170.304H78.3682L76.5315 169.742L77.756 168.619L78.9805 165.812Z" fill="#1A1A1B"/>
<path d="M61.2252 175.918V177.603L61.8374 179.287L63.6742 181.533L64.8987 182.094L66.1232 182.656L67.9599 183.217L70.4089 184.34L75.307 183.779L80.205 183.217L85.103 182.656L89.3888 181.533L91.5317 180.971L93.6745 180.41L97.3481 179.849H99.1848L102.246 178.726L104.695 178.164L104.083 175.357V173.111L103.471 170.865L102.858 168.058L102.246 165.812L96.1236 166.935L93.9807 168.058H93.3684H91.2255L87.552 169.742H83.2663L78.3682 170.304H71.6335L68.5722 171.988L71.0212 171.427L72.2457 170.865H78.3682H83.2663H87.8581L88.7765 170.304L90.001 169.742H91.2255L92.45 168.619H95.5113L96.7358 168.058L99.7971 167.497L101.022 166.935L101.634 169.181L102.246 171.427L102.858 174.234L103.471 177.603L100.409 178.726L96.7358 179.287L93.6745 179.849L88.1643 180.971L82.0417 182.094L75.9192 182.656L71.0212 183.568L68.5722 182.656L66.7354 182.094L64.2864 180.971L63.0619 179.287L62.4497 177.041L63.6742 175.918L65.5109 174.234L67.3477 173.111L68.5722 171.988L66.1232 173.111L63.6742 174.234L61.2252 175.918Z" fill="#1A1A1B"/>
<path d="M91.8378 158.513V153.46L91.2255 154.022V158.513L92.45 160.198V162.443V164.689L93.3684 168.058H93.9807L93.6745 164.9L93.0623 162.443V160.198L91.8378 158.513Z" fill="#1A1A1B"/>
<path d="M83.2663 143.354L81.4295 142.793L78.3682 144.477L74.0825 147.846L69.1844 152.899L67.7303 155.706L65.5109 160.759L63.6742 163.566L63.4701 164.128L62.4497 169.742V171.988L61.8374 174.795L64.2864 173.111L67.3477 171.427L69.7967 170.304L71.0212 169.742H75.307L77.756 166.725L78.3682 165.251L81.4295 160.759L83.8785 156.267L85.7153 152.899L86.3275 151.776L86.9398 151.214V149.53L86.3275 147.284V145.81L85.103 144.477L83.2663 143.354Z" fill="white"/>
<path d="M71.0212 171.427L68.5722 171.988L67.3477 173.111L65.5109 174.234L63.6742 175.918L62.4497 177.041L63.0619 179.287L64.2864 180.971L66.7354 182.094L68.5722 182.656L71.0212 183.568L75.9192 182.656L82.0417 182.094L88.1643 180.971L93.6745 179.849L96.7358 179.287L100.409 178.726L103.471 177.603L102.858 174.234L102.246 171.427L101.634 169.181L101.022 166.935L99.7971 167.497L96.7358 168.058L95.5113 168.619H92.45L91.2255 169.742H90.001L88.7765 170.304L87.8581 170.865H83.2663H78.3682H72.2457L71.0212 171.427Z" fill="white"/>
<path d="M89.3888 155.706L88.1643 157.39L85.7153 159.075L83.2663 160.198L82.0417 161.601L80.8172 163.005L78.9805 165.812L77.756 168.619L76.5315 169.742L78.3682 170.304L83.2663 169.742H87.552L91.2255 168.058H93.3684L92.45 164.689V162.443V160.198L91.2255 158.513V154.022L89.3888 155.706Z" fill="white"/>
<path d="M104.083 173.111V175.357L108.369 174.234L110.818 174.795H113.879L115.103 174.234L116.94 172.55L117.552 170.304L116.94 166.935L116.328 166.374L115.716 165.251L115.103 164.128H114.491H113.267L112.042 163.566V163.005L111.43 163.566L110.205 164.128L108.981 165.251L107.756 166.374L105.92 168.058H102.858L103.471 170.865L104.083 173.111Z" fill="#E18888"/>
<path d="M112.042 163.566L113.267 164.128H114.491H115.103L124.899 155.145L123.063 153.46L112.042 163.566Z" fill="#191A32"/>
<path fill-rule="evenodd" clip-rule="evenodd" d="M105.92 131.563L103.471 131.002L104.083 134.932V137.178H103.088L102.858 138.301L102.246 139.985L101.022 141.67L100.409 142.793L98.5726 143.354H96.7358L94.899 142.793L93.0623 143.915L92.45 145.038L90.6133 147.846L91.2255 148.969L91.6082 150.653L91.8378 152.899V153.46V158.513L93.0623 160.198V162.443L93.6745 164.9L93.9807 168.058L96.1236 166.935L102.246 165.812L102.858 168.058H105.92L107.756 166.374L108.981 165.251L110.205 164.128L111.43 163.566L112.042 163.005V163.566L123.063 153.46L124.899 155.145L115.103 164.128L115.716 165.251L116.328 166.374L116.94 166.935L117.552 170.304L116.94 172.55L115.103 174.234L113.879 174.795H110.818L108.369 174.234L104.083 175.357L104.695 178.164L102.246 178.726L99.1848 179.849H97.3481L93.6745 180.41L96.1236 187.709L126.124 201.184C171.762 211.101 190.813 205.866 210.615 173.111L219.799 141.108L225.309 115.843L232.044 92.2616L242.452 57.4514C246.431 5.95814 229.322 -6.6729 172.043 2.99024C142.278 9.50556 125.12 11.1453 93.3684 9.1662C29.8369 -0.661688 15.5812 14.7932 22.041 73.7335L26.939 91.7001L39.7963 128.756L48.5974 143.915L50.2046 141.67L51.4291 139.985L52.6536 138.862V136.617L53.8781 133.809L54.4904 132.686L56.3271 131.002L58.7761 128.756L62.1435 128.195H65.2048L69.1844 127.633L72.2457 129.318L74.6947 129.879L77.1437 131.563L79.5927 133.248L80.205 136.055V141.108L82.0417 140.547V139.985L83.8785 136.055L85.7153 133.248L84.4908 132.686L83.8785 131.563V129.318L82.654 126.51L81.4295 123.703V122.019V119.773L83.8785 117.527L85.103 116.966H87.552L89.3888 115.843L90.6133 113.597L94.2868 113.035L101.022 116.404L107.756 123.703L112.042 125.387L113.879 128.195L112.654 129.879L111.43 132.125L110.205 132.686L107.756 133.248L105.92 131.563ZM178.778 108.544L162.859 132.125L146.941 108.544C143.966 102.029 145.104 95.6303 149.39 91.7001C153.675 87.7699 165.784 84.5441 175.104 91.7001C180.928 96.2195 181.264 100.127 178.778 108.544Z" fill="#DDDEEF"/>
<path d="M162.859 132.125L178.778 108.544C181.264 100.127 180.928 96.2195 175.104 91.7001C165.784 84.5441 153.675 87.7699 149.39 91.7001C145.104 95.6303 143.966 102.029 146.941 108.544L162.859 132.125Z" fill="#5CB85C"/>
<ellipse cx="162.859" cy="102.368" rx="7.34703" ry="6.73746" fill="#D9D9D9"/>
</svg>
