<svg width="300" height="190" viewBox="0 0 300 190" fill="none" xmlns="http://www.w3.org/2000/svg">
<path d="M89.697 52.4563L76.9697 44.3314L64.8485 48.9742L75.1515 56.5188C80.5926 54.0722 83.7165 52.9611 89.697 52.4563Z" fill="#0076CC"/>
<path d="M85.4546 66.3848C90.471 63.0765 93.4527 61.5467 99.3939 60.0009L91.5152 53.617C85.6615 55.1222 82.5086 56.1966 76.9697 58.2598C80.7665 61.2476 82.6726 63.0083 85.4546 66.3848Z" fill="#0076CC"/>
<path d="M87.2727 68.7062L89.697 71.0276L95.1515 79.7329C103.846 74.6048 107.705 73.135 112.121 73.9293L101.212 61.742C95.7374 63.3502 92.6885 65.001 87.2727 68.7062Z" fill="#0076CC"/>
<path d="M103.03 93.6614C110.73 89.3524 115.028 87.0059 121.818 86.1168L114.545 75.6704C108.02 75.2168 104.076 77.2622 96.9697 81.4739L103.03 93.6614Z" fill="#0076CC"/>
<path d="M133.221 104.586L131.515 101.786L123.636 89.0185C119.351 87.6099 113.811 90.5432 104.242 95.4024L109.091 104.573C112.637 104.776 116.558 105.462 121.089 106.536L133.221 104.586Z" fill="#0076CC"/>
<path d="M153.333 88.4382C145.262 85.9895 140.584 86.4705 132.121 89.0185L131.515 101.786L133.221 104.586L134.343 106.429L137.172 111.072L141.212 109.911V109.331L144.242 110.201L154.545 109.911L153.333 88.4382Z" fill="#0076CC"/>
<path d="M153.939 73.9294L155.152 71.608C154.081 71.3116 153.077 71.0474 152.121 70.8145C146.24 69.3815 142.194 69.135 135.758 69.8669L132.121 85.5364C140.886 83.5356 145.596 83.2604 153.333 85.5364L153.939 73.9294Z" fill="#0076CC"/>
<path d="M140.606 51.8759L138.182 59.4205L135.758 66.9651C140.383 66.7822 143.675 66.8252 146.43 67.1795C149.206 67.5365 151.438 68.2097 153.939 69.2865C154.29 62.2449 154.826 58.951 156.364 54.1973C150.267 52.211 146.825 51.5349 140.606 51.8759Z" fill="#0076CC"/>
<path d="M137.172 111.072L134.343 106.429L128.981 108.719L137.172 111.072Z" fill="#0076CC"/>
<path d="M154.545 111.652L149.091 111.738L154.825 113.837L154.545 111.652Z" fill="#0076CC"/>
<path d="M116.97 152.857V158.661V167.366V170.268L116.364 173.75L115.758 176.072L115.152 178.393V179.554L115.758 180.714L116.364 181.295L117.576 182.455L118.788 183.036H119.394H121.212H126.061H162.652H165.455H167.273L168.485 182.455L169.697 181.875L170.303 180.714V178.973L168.485 173.17L164.849 162.723L162.424 154.598L155.152 151.697C140.132 146.129 131.761 146.444 116.97 152.857Z" fill="#0076CC"/>
<path d="M76.9697 44.3314C88.9291 41.1872 95.3559 40.9694 106.667 41.4296C97.7813 31.5379 90.1273 30.0437 73.3333 32.144C80.6408 22.3528 84.6179 18.727 91.5152 15.3137C77.2974 13.3984 70.4248 16.2938 60 28.0815C47.8989 19.5382 40.9341 17.0182 27.8788 20.5369C36.1138 25.6935 39.0704 27.8189 44.2424 31.5636C28.3897 31.6092 20.3359 32.6248 13.3333 43.1707C25.1201 41.9252 30.954 41.9353 39.3939 43.7511C26.4176 52.7491 24.0596 59.3678 23.0303 72.1883C32.7456 63.1439 38.2955 58.8814 48.4848 53.617C45.7926 57.4133 45.6101 59.9296 46.0606 64.6438C51.9608 57.5606 55.1487 53.5089 64.8485 48.9742L76.9697 44.3314Z" fill="#0094FF"/>
<path fill-rule="evenodd" clip-rule="evenodd" d="M33.3335 153.438C31.5395 150.297 31.8282 149.378 35.7577 149.956L39.3939 150.287C52.1629 131.349 60.517 125.651 76.9697 121.846C79.3483 119.548 81.9426 117.146 84.8485 114.554C93.1609 106.803 99.8546 104.046 109.091 104.573L104.242 95.4024C113.811 90.5432 119.351 87.6099 123.636 89.0185L131.515 101.786L132.121 89.0185C140.584 86.4705 145.262 85.9895 153.333 88.4382L154.545 109.911L144.242 110.201L147.273 111.072L149.091 111.738L154.545 111.652L154.825 113.837L167.879 118.617L169.091 117.456L173.333 118.617V120.358C178.032 120.383 180.512 120.228 184.242 119.197C191.265 118.08 194.878 117.097 200.606 114.554C199.739 112.407 198.874 111.121 196.97 108.751C199.964 107.513 202.355 106.51 204.621 105.494C204.71 105.454 204.8 105.413 204.889 105.373C201.488 97.7121 200.72 93.2032 203.636 84.9561C206.214 79.9344 208.606 78.5852 215.152 79.7329C215.772 79.8088 216.376 79.9047 216.97 80.0203C204.196 63.2948 196.249 60.7727 179.394 79.7329L169.697 90.1792L153.939 73.9294L153.333 85.5364C145.596 83.2604 140.886 83.5356 132.121 85.5364L135.758 69.8669C142.194 69.135 146.24 69.3815 152.121 70.8145L146.43 67.1795C143.675 66.8252 140.383 66.7822 135.758 66.9651L138.182 59.4205C124.08 47.2874 116.071 44.4545 101.212 61.742L112.121 73.9293C107.705 73.135 103.846 74.6048 95.1515 79.7329L89.697 71.0276L0 159.822H34.3491L36.3636 154.744L33.3335 153.438ZM121.818 86.1168C115.028 87.0059 110.73 89.3524 103.03 93.6614L96.9697 81.4739C104.076 77.2622 108.02 75.2168 114.545 75.6704L121.818 86.1168Z" fill="#F0F0F0"/>
<path d="M223.637 104.688L229.091 100.626L231.675 95.4025L226.167 88.869L218.788 86.1168C210.677 83.0852 209.048 85.1504 209.091 92.6316L209.697 96.5632L211.515 102.161C212.1 101.858 212.704 101.541 213.333 101.206L215.758 105.849L217.576 102.367H219.394L221.212 103.527L221.212 105.849L222.424 105.268L223.637 104.688Z" fill="#F0F0F0"/>
<path d="M234.546 89.5989L235.758 87.8579L238.182 86.6972L236.97 85.5364L235.758 86.1168H235.152L233.939 86.6972L233.045 86.951C226.241 83.3859 221.991 80.9985 216.97 80.0203C216.376 79.9047 215.772 79.8088 215.152 79.7329C208.606 78.5852 206.214 79.9344 203.636 84.9561C200.72 93.2032 201.488 97.7121 204.889 105.373C207.056 104.396 209.124 103.399 211.515 102.161L209.697 96.5632L209.091 92.6316C209.048 85.1504 210.677 83.0852 218.788 86.1168L226.167 88.869L233.545 91.6213L234.546 89.5989Z" fill="#FF8B7B"/>
<path d="M267.273 134.866L251.61 135.447C251.334 137.729 251.048 139.72 250.686 141.831L263.03 141.122L268.249 140.823L270.909 140.67C271.339 140.521 271.743 140.372 272.121 140.221C276.544 138.453 277.501 136.421 276.97 131.965C276.826 130.045 276.597 128.331 276.273 126.742C275.805 124.438 275.139 122.395 274.25 120.358C272.997 117.486 271.301 114.627 269.091 111.072L266.061 117.456L267.792 118.036L270.909 128.483C272.125 132.662 271.654 134.266 267.273 134.866Z" fill="#FF8B7B"/>
<path d="M276.97 131.965L283.637 122.679C283.054 120.03 282.243 119.432 279.394 120.938L278.788 122.099L276.273 126.742C276.597 128.331 276.826 130.045 276.97 131.965Z" fill="#0194FE"/>
<path d="M248.485 154.598C257.024 150.382 262.036 146.529 268.249 140.823L263.03 141.122L247.5 149.956C217.612 162.301 198.985 162.777 161.818 149.956C143.41 141.739 132.957 140.867 113.94 149.956C102.031 157.569 95.6742 164.056 90.8512 174.331C89.1185 178.022 87.5838 182.202 86.0608 187.098L89.6971 188.259C94.8334 172.14 99.8692 163.998 116.97 152.857C131.761 146.444 140.132 146.129 155.152 151.697L162.424 154.598C193.32 165.869 211.731 166.984 240.606 157.382C242.018 156.912 243.455 156.417 244.919 155.896C246.09 155.48 247.278 155.048 248.485 154.598Z" fill="#0194FE"/>
<path d="M250.686 141.831C250.409 143.441 250.089 145.121 249.697 147.054L232.121 143.572C223.169 146.168 214.258 146.84 196.364 147.634L186.338 149.748L186.667 150.536L181.212 152.277C176.827 153.207 173.575 153.068 163.636 149.375C153.455 146.125 150.306 142.605 150.004 141.25C149.723 142.179 149.419 143.142 149.091 144.152L143.03 141.831L144.848 137.768L123.03 131.965C114.563 130.009 110.134 130.174 103.636 136.027L91.5152 148.215L86.6667 153.438L81.2121 159.241L71.5152 171.791L72.1214 172.009L90.8512 174.331C95.6742 164.056 102.031 157.569 113.94 149.956C132.957 140.867 143.41 141.739 161.818 149.956C198.985 162.777 217.612 162.301 247.5 149.956L263.03 141.122L250.686 141.831Z" fill="#0076CC"/>
<path d="M48.485 151.116L49.091 149.956L51.8183 151.116C60.1741 140.145 66.0065 132.776 74.3511 124.42C59.2865 128.493 52.2528 134.835 41.2121 150.453L48.485 151.116Z" fill="#0076CC"/>
<path d="M61.2123 170.848L62.4244 168.527L63.6364 168.962C74.981 149.278 82.5094 139.062 99.3939 123.259C99.6352 123.054 99.8742 122.853 100.111 122.657L95.7576 122.79C81.8873 132.252 73.3228 140.348 59.1319 154.229L60.0001 154.598L59.3939 160.402C59.9919 163.865 59.2308 164.044 57.5758 163.884L38.1818 155.527L35.1515 163.304C34.4813 165.547 34.9878 165.945 35.7577 166.786C40.6418 168.782 48.2782 169.504 61.2123 170.848Z" fill="#0076CC"/>
<path d="M29.697 181.875L35.7577 166.786C34.9878 165.945 34.4813 165.547 35.1515 163.304L38.1818 155.527L36.3636 154.744L34.3491 159.822L26.0606 180.714L29.697 181.875Z" fill="#008EFF"/>
<path d="M76.9697 121.846C60.517 125.651 52.1629 131.349 39.3939 150.287L41.2121 150.453C52.2528 134.835 59.2865 128.493 74.3511 124.42C75.1964 123.574 76.0676 122.717 76.9697 121.846Z" fill="#008EFF"/>
<path d="M71.5152 171.791L81.2121 159.241L86.6667 153.438L91.5152 148.215L103.636 136.027C110.134 130.174 114.563 130.009 123.03 131.965L144.848 137.768C145.988 132.051 146.463 128.127 146.33 122.679L141.212 121.276L127.273 117.456C119.291 114.782 113.883 114.354 107.721 117.456C105.358 118.646 102.884 120.355 100.111 122.657C99.8742 122.853 99.6352 123.054 99.3939 123.259C82.5094 139.062 74.981 149.278 63.6364 168.962L71.5152 171.791Z" fill="#FF8B7B"/>
<path d="M107.721 117.456C113.883 114.354 119.291 114.782 127.273 117.456L141.212 121.276V112.233L137.172 111.072L128.981 108.719L123.03 107.01C122.371 106.844 121.724 106.686 121.089 106.536C116.558 105.462 112.637 104.776 109.091 104.573C99.8546 104.046 93.1609 106.803 84.8485 114.554C81.9426 117.146 79.3483 119.548 76.9697 121.846C76.0676 122.717 75.1964 123.574 74.3511 124.42C66.0065 132.776 60.1741 140.145 51.8183 151.116L59.1319 154.229C73.3228 140.348 81.8873 132.252 95.7576 122.79C96.9296 121.99 98.1395 121.181 99.3939 120.358C102.778 118.416 104.611 117.719 107.721 117.456Z" fill="#FF8B7B"/>
<path d="M173.333 120.358L174.167 121.809L178.788 133.125L179.394 134.866L184.242 145.313L185.455 147.634L186.338 149.748L196.364 147.634C194.046 136.179 191.639 129.917 184.242 119.197C180.512 120.228 178.032 120.383 173.333 120.358Z" fill="#FF8B7B"/>
<path d="M251.61 135.447C251.78 134.042 251.945 132.526 252.121 130.804L249.091 129.063L247.273 127.902L245.455 127.322H243.637L241.212 127.902H239.394L238.182 126.742L237.576 124.42C226.703 127.162 223.637 126.627 220 124.42C217.151 120.506 216.427 118.608 220 116.876L224.849 115.134L223.637 114.554L222.424 113.393L221.212 112.813L219.394 111.652L218.182 110.492L215.758 105.849L213.333 101.206C212.704 101.541 212.1 101.858 211.515 102.161C209.124 103.399 207.056 104.396 204.889 105.373C204.8 105.413 204.71 105.454 204.621 105.494C202.355 106.51 199.964 107.513 196.97 108.751C198.874 111.121 199.739 112.407 200.606 114.554C194.878 117.097 191.265 118.08 184.242 119.197C191.639 129.917 194.046 136.179 196.364 147.634C214.258 146.84 223.169 146.168 232.121 143.572L249.697 147.054C250.089 145.121 250.409 143.441 250.686 141.831C251.048 139.72 251.334 137.729 251.61 135.447Z" fill="#99D4FF"/>
<path d="M146.33 122.679C146.291 121.094 146.201 119.38 146.061 117.456L148.485 118.152L147.273 111.072L144.242 110.201L141.212 109.331V109.911V112.233V121.276L146.33 122.679Z" fill="#99D4FF"/>
<path d="M163.636 149.375C173.575 153.068 176.827 153.207 181.212 152.277L180 149.217L179.143 147.054L174.877 136.284L174.167 134.491L170.408 125.001L152.166 119.67C152.997 128.684 152.236 133.88 150.004 141.25C150.306 142.605 153.455 146.125 163.636 149.375Z" fill="#0F264C"/>
<path d="M148.485 118.152L152.121 119.197C152.137 119.356 152.151 119.513 152.166 119.67L170.408 125.001L169.775 123.405L169.143 121.809L167.879 118.617L154.825 113.837L149.091 111.738L147.273 111.072L148.485 118.152Z" fill="#0A1B35"/>
<path d="M173.333 120.358L169.143 121.809L169.775 123.405L174.167 121.809L173.333 120.358Z" fill="#0A1B35"/>
<path d="M178.788 133.125L174.167 134.491L174.877 136.284L179.394 134.866L178.788 133.125Z" fill="#0A1B35"/>
<path d="M184.242 145.313L179.143 147.054L180 149.217L185.455 147.634L184.242 145.313Z" fill="#0A1B35"/>
<path d="M180 149.217L181.212 152.277L186.667 150.536L186.338 149.748L185.455 147.634L180 149.217Z" fill="#0099FF"/>
<path d="M179.394 134.866L174.877 136.284L179.143 147.054L184.242 145.313L179.394 134.866Z" fill="#0099FF"/>
<path d="M169.775 123.405L170.408 125.001L174.167 134.491L178.788 133.125L174.167 121.809L169.775 123.405Z" fill="#0099FF"/>
<path d="M169.091 117.456L167.879 118.617L169.143 121.809L173.333 120.358V118.617L169.091 117.456Z" fill="#0099FF"/>
<path d="M62.4244 168.527L61.2123 170.848H44.8486C41.8986 170.735 41.7062 171.486 43.0305 173.75L69.091 181.875C71.5369 182.112 71.714 181.163 72.1214 179.554V172.009L71.5152 171.791L63.6364 168.962L62.4244 168.527Z" fill="#14365B"/>
<path d="M49.091 149.956L48.485 151.116L41.2121 150.453L39.3939 150.287L35.7577 149.956C31.8282 149.378 31.5395 150.297 33.3335 153.438L36.3636 154.744L38.1818 155.527L57.5758 163.884C59.2308 164.044 59.9919 163.865 59.3939 160.402L60.0001 154.598L59.1319 154.229L51.8183 151.116L49.091 149.956Z" fill="#14365B"/>
<path d="M280.606 180.714V187.679H278.788C274.615 188.401 274.223 188.677 278.788 189.42H284.848C288.803 189.084 287.826 188.618 284.848 187.679H283.03V180.714L289.697 174.331L286.667 174.21L284.848 174.137L275.152 173.75L280.606 180.714Z" fill="#99D4FF"/>
<path d="M289.091 165.625L284.848 174.137L286.667 174.21L290.303 166.786L300 163.304L299.394 162.143L289.091 165.625Z" fill="#C5CBCF"/>
<path d="M240.606 97.7239V100.045L241.818 101.786L242.424 102.947L244.849 103.527L246.061 102.947L246.667 101.786L247.273 101.206L249.623 104.019L249.697 104.108L246.667 99.4649L246.061 98.8846L245.455 97.7239L244.849 97.1435L241.212 95.4025L237.576 93.081L236.364 92.5007H235.758H234.546L233.045 92.6316V93.9153V94.8221L233.189 95.4025L233.333 95.9828L233.94 97.1435L235.758 97.7239H236.97L237.576 97.1435H238.788V96.5632L240.606 97.7239Z" fill="#0E254C"/>
<path d="M249.091 129.063C257.365 126.622 261.419 124.511 266.061 117.456L269.091 111.072C270.049 105.646 269.643 102.933 266.667 98.8846C269.852 93.0595 269.789 90.2447 263.637 86.6972C259.561 84.3332 257.297 83.3142 253.333 82.6347L242.424 84.9561L240.606 85.5364L239.394 86.1168L238.182 86.6972L235.758 87.8579L234.546 89.5989L233.545 91.6213L233.045 92.6316L234.546 92.5007H235.758L236.364 91.9203L237.576 90.1793L238.182 89.5989L241.212 88.4382L243.03 87.8579H245.455H246.667L248.485 88.4382L249.091 90.7596C249.576 92.6168 250.101 93.081 250.303 93.081L252.121 94.2417L253.333 95.9828L253.94 97.1435C254.344 97.337 255.152 97.956 255.152 98.8846C255.152 99.8131 254.344 100.432 253.94 100.626L253.333 101.786L251.515 103.527L249.697 104.108L249.623 104.019L249.697 105.268V105.849V106.429V107.01L250.303 107.59C250.303 107.783 250.546 107.938 251.515 107.01L252.727 105.849H253.333L254.546 106.429L255.152 107.01L256.364 108.17V109.331L255.152 110.492L253.94 111.652L246.061 113.974L244.243 115.715L241.818 118.036L239.394 120.358L238.182 122.679L237.576 124.42L238.182 126.742L239.394 127.902H241.212L243.637 127.322H245.455L247.273 127.902L249.091 129.063Z" fill="#0F264C"/>
<path d="M229.091 100.626L229.697 102.367L231.515 99.4649L232.121 97.7239L233.189 95.4025L233.045 94.8221V93.9153V92.6316L231.675 95.4025L229.091 100.626Z" fill="#0F264C"/>
<path d="M229.091 100.626L223.637 104.688L222.424 105.268L221.212 105.849L220 106.429L218.788 107.01L218.182 108.17V109.331V110.492L219.394 111.652L221.212 112.813L222.424 113.393L223.637 114.554L224.849 115.134L227.273 116.295H230.303L232.121 115.134L233.94 113.974V112.813L232.727 111.652L231.515 109.911L230.909 109.331L229.697 106.429V103.527V102.367L229.091 100.626Z" fill="#0F264C"/>
<path fill-rule="evenodd" clip-rule="evenodd" d="M224.849 115.134L227.273 116.295H230.303L232.121 115.134L233.94 113.974V112.813L232.727 111.652L231.515 109.911L230.909 109.331L229.697 106.429V103.527V102.367L231.515 99.4649L232.121 97.7239L233.189 95.4025L233.333 95.9828L233.94 97.1435L235.758 97.7239H236.97L237.576 97.1435H238.788V96.5632L240.606 97.7239V100.045L241.818 101.786L242.424 102.947L244.849 103.527L246.061 102.947L246.667 101.786L247.273 101.206L249.623 104.019L249.697 105.268V105.849V106.429V107.01L250.303 107.59C250.303 107.783 250.546 107.938 251.515 107.01L252.727 105.849H253.333L254.546 106.429L255.152 107.01L256.364 108.17V109.331L255.152 110.492L253.94 111.652L246.061 113.974L244.243 115.715L241.818 118.036L239.394 120.358L238.182 122.679L237.576 124.42C226.703 127.162 223.637 126.627 220 124.42C217.151 120.506 216.427 118.608 220 116.876L224.849 115.134ZM238.182 104.108L237.576 103.527L236.97 104.108L238.788 105.849L241.212 106.429L241.818 105.849L242.424 105.268L243.03 104.688L242.424 104.108L241.818 104.688L241.212 105.268H240H239.394L238.788 104.688L238.182 104.108Z" fill="#FF8B7B"/>
<path d="M237.576 103.527L238.182 104.108L238.788 104.688L239.394 105.268H240H241.212L241.818 104.688L242.424 104.108L243.03 104.688L242.424 105.268L241.818 105.849L241.212 106.429L238.788 105.849L236.97 104.108L237.576 103.527Z" fill="black" fill-opacity="0.5"/>
<path fill-rule="evenodd" clip-rule="evenodd" d="M246.667 99.4649L249.697 104.108L251.515 103.527L253.333 101.786L253.94 100.626C254.344 100.432 255.152 99.8131 255.152 98.8846C255.152 97.956 254.344 97.337 253.94 97.1435L253.333 95.9828L252.121 94.2417L250.303 93.081C250.101 93.081 249.576 92.6168 249.091 90.7596L248.485 88.4382L246.667 87.8579H245.455H243.03L241.212 88.4382L238.182 89.5989L237.576 90.1793L236.364 91.9203L235.758 92.5007H236.364L237.576 93.081L241.212 95.4025L244.849 97.1435L245.455 97.7239L246.061 98.8846L246.667 99.4649ZM240 90.1793L239.394 91.34L241.818 91.9203L242.424 90.7596L240 90.1793ZM247.273 94.2417L248.485 93.081L250.303 96.5632L248.485 97.1435L247.273 94.2417Z" fill="#FF8B7B"/>
<path d="M248.485 93.081L247.273 94.2417L248.485 97.1435L250.303 96.5632L248.485 93.081Z" fill="black" fill-opacity="0.5"/>
<path d="M242.424 90.7596L240 90.1793L239.394 91.34L241.818 91.9203L242.424 90.7596Z" fill="black" fill-opacity="0.5"/>
<path d="M265.455 190L269.091 187.679L249.67 162.143L244.919 155.896C243.455 156.417 242.018 156.912 240.606 157.382L244.233 162.143L265.455 190Z" fill="#0194FE"/>
<path d="M161.818 37.9475C174.962 37.0124 187.78 45.8832 193.939 51.8759C193.114 39.2107 193.44 31.6514 176.97 28.0815C182.548 17.86 187.192 13.4276 198.788 8.34948C184.837 4.86162 178.443 6.30502 169.775 15.3137C159.81 -4.36716 151.001 -0.920149 135.758 3.12629C143.651 3.56598 147.503 6.1153 153.939 12.412C133.774 6.27054 125.268 9.63037 112.121 20.5369C130.11 16.6482 133.679 19.628 141.212 24.019C128.814 28.6323 125.136 33.4723 121.818 44.3314C130.072 39.1763 135.764 38.5296 145.455 37.9475H161.818Z" fill="#0094FF"/>
<path d="M145.455 37.9475L141.212 49.5545C148.017 49.4118 151.46 49.9343 156.97 51.8759L161.818 37.9475H145.455Z" fill="#0076CC"/>
</svg>
